# xmcd CD database file
#
# Track frame offsets:
#	150
#	21750
#	47528
#	61755
#	80795
#	100143
#	123628
#	143493
#	169573
#	194755
#	215630
#	232310
#
# Disc length: 3410 seconds
#
# Revision: 0
# Processed by: cddbd v1.5.1PL2 Copyright (c) Steve Scherf et al.
# Submitted via: CDex 1.51
#
DISCID=ab0d500c
DTITLE=VariousArtist - Brazilian Lounge - Disc 1
DYEAR=1900
DGENRE=Bossa Nova
TTITLE0=Summer Samba - Tohru Shigemi
TTITLE1=Avenida Central Romero Lubambo
TTITLE2=Receita De Samba - Daniela Spielmann
TTITLE3=Feel Like Rio - Brett Raymond
TTITLE4=Paris Strut - paris match
TTITLE5=Shi Wa Zu (Diciembre En Barrio Obrero) - Rie Akagi
TTITLE6=Ritomo E Voce - res.
TTITLE7=Vince Goes To Rio - Brett Raymond
TTITLE8=Landscape From The Higher Lounge - jazoulster
TTITLE9=Sweeping The Chimney - Romero Lubambo
TTITLE10=Isto Aqui O Que E - Daniela Spuielmann
TTITLE11=Sudden Samba - Rie Akagi
EXTD=
EXTT0=
EXTT1=
EXTT2=
EXTT3=
EXTT4=
EXTT5=
EXTT6=
EXTT7=
EXTT8=
EXTT9=
EXTT10=
EXTT11=
PLAYORDER=
